<?xml version="1.0" standalone="no"?>
<!DOCTYPE svg PUBLIC "-//W3C//DTD SVG 20010904//EN"
 "http://www.w3.org/TR/2001/REC-SVG-20010904/DTD/svg10.dtd">
<svg version="1.0" xmlns="http://www.w3.org/2000/svg"
 width="512.000000pt" height="512.000000pt" viewBox="0 0 512.000000 512.000000"
 preserveAspectRatio="xMidYMid meet">
<metadata>
Created by potrace 1.11, written by Peter Selinger 2001-2013
</metadata>
<g transform="translate(0.000000,512.000000) scale(0.100000,-0.100000)"
fill="#000000" stroke="none">
<path d="M4489 5067 c-14 -12 -41 -34 -60 -48 -19 -15 -90 -71 -159 -125 -69
-54 -129 -102 -135 -106 -16 -12 -89 -70 -126 -100 -19 -15 -38 -28 -43 -28
-4 0 -25 13 -45 29 -78 62 -191 123 -386 212 -27 12 -194 59 -225 64 -14 2
-25 4 -25 5 0 11 -193 15 -760 15 -606 0 -769 -4 -795 -20 -4 -3 -25 -7 -46
-11 -22 -3 -46 -10 -54 -14 -8 -4 -18 -8 -22 -9 -5 -1 -9 -1 -10 -2 -2 0 -10
-2 -18 -4 -37 -8 -154 -57 -237 -100 -284 -144 -497 -342 -644 -596 -30 -52
-59 -103 -66 -114 -7 -11 -15 -27 -19 -35 -4 -8 -25 -43 -46 -78 -21 -34 -38
-64 -38 -67 0 -2 -25 -45 -55 -95 -30 -50 -55 -93 -55 -95 0 -2 -25 -45 -55
-95 -30 -50 -55 -93 -55 -95 0 -3 -18 -34 -40 -70 -22 -36 -40 -68 -40 -71 0
-3 -8 -18 -19 -32 -66 -95 -137 -271 -171 -423 -31 -136 -35 -182 -35 -364 0
-167 11 -270 42 -390 8 -33 16 -67 18 -75 11 -55 87 -219 147 -318 21 -34 38
-67 38 -72 0 -6 5 -10 11 -10 5 0 8 -4 4 -9 -3 -5 -1 -12 4 -15 4 -3 51 -80
102 -171 93 -163 94 -165 111 -142 10 12 18 25 18 29 0 4 18 37 40 73 22 36
40 70 40 75 0 6 4 10 9 10 5 0 14 12 20 28 10 27 51 103 61 112 3 3 11 16 18
30 7 14 26 48 42 75 17 28 35 59 40 70 6 11 14 27 20 35 13 19 165 281 198
340 13 25 40 70 58 101 19 31 34 61 34 67 0 6 3 12 8 14 6 2 120 196 166 283
6 11 13 22 16 25 3 3 47 77 96 165 50 88 121 211 157 274 37 62 67 115 67 116
0 2 21 39 46 82 26 43 55 92 64 108 85 149 434 752 441 760 5 7 116 10 331 9
259 -2 338 -6 398 -19 41 -9 90 -19 108 -22 17 -3 32 -10 32 -15 0 -11 -47
-95 -170 -308 -40 -69 -96 -165 -125 -215 -28 -49 -96 -166 -150 -260 -54 -93
-108 -187 -119 -207 -12 -20 -47 -82 -78 -137 -32 -55 -58 -103 -58 -108 0 -5
10 -9 23 -9 12 -1 56 -4 97 -8 41 -5 93 -10 115 -11 22 -2 63 -6 90 -9 28 -4
77 -8 110 -11 33 -3 78 -7 100 -10 22 -2 74 -7 115 -10 41 -4 85 -8 98 -10 12
-2 62 -7 110 -10 l87 -6 115 201 c63 111 126 221 139 243 12 23 38 67 57 98
19 31 34 61 34 67 0 6 4 12 9 14 5 2 20 26 35 53 28 53 43 79 91 160 16 28 39
66 50 86 29 52 185 321 196 339 5 8 57 98 115 200 59 102 114 199 124 215 207
358 302 525 298 525 -2 0 -15 -11 -29 -23z"/>
<path d="M4637 3719 c-38 -63 -77 -130 -77 -133 0 -3 -102 -178 -120 -206 -6
-8 -13 -22 -17 -30 -4 -8 -33 -59 -65 -113 -32 -53 -58 -102 -58 -107 0 -6 -4
-10 -10 -10 -5 0 -10 -9 -10 -20 0 -11 -3 -20 -8 -20 -4 0 -16 -17 -27 -37
-11 -21 -39 -71 -62 -111 -24 -40 -43 -77 -43 -82 0 -6 -4 -10 -9 -10 -5 0
-11 -8 -15 -17 -3 -10 -21 -43 -38 -74 -18 -31 -51 -87 -72 -125 -22 -38 -44
-72 -50 -76 -6 -4 -8 -8 -4 -8 4 0 -8 -25 -27 -55 -19 -30 -35 -56 -35 -59 0
-3 -16 -30 -35 -60 -19 -30 -35 -57 -35 -60 0 -6 -82 -150 -89 -156 -3 -3 -14
-21 -25 -40 -16 -31 -224 -392 -247 -430 -8 -14 -376 -652 -438 -760 -14 -25
-31 -54 -37 -64 -10 -16 -32 -18 -290 -17 -153 0 -306 3 -339 6 -85 8 -245 45
-245 56 0 11 219 394 251 441 11 15 19 29 19 31 0 4 147 262 169 297 6 8 22
38 37 65 15 28 29 52 33 55 3 3 15 24 26 47 11 24 23 43 28 43 4 0 7 4 7 9 0
5 29 59 65 121 36 62 65 116 65 121 0 5 -12 10 -27 10 -16 1 -37 3 -48 4 -11
2 -52 5 -92 9 -39 3 -86 8 -105 11 -18 2 -60 7 -93 10 -33 3 -78 7 -100 9 -22
2 -76 7 -120 11 -44 4 -91 9 -105 10 -14 1 -56 5 -95 9 -38 4 -88 9 -111 12
-48 6 -47 8 -137 -161 -12 -22 -24 -42 -27 -45 -11 -10 -210 -362 -210 -371 0
-5 -4 -9 -8 -9 -4 0 -18 -19 -30 -42 -24 -47 -28 -55 -216 -380 -71 -123 -152
-263 -180 -311 -28 -49 -55 -96 -61 -105 -21 -37 -250 -434 -314 -547 -54 -94
-105 -182 -120 -204 l-16 -24 29 19 c16 10 39 26 50 36 18 15 78 62 226 179
14 11 36 28 50 39 14 11 65 52 113 89 l88 69 77 -52 c88 -61 220 -133 307
-169 90 -36 99 -40 110 -42 6 -2 42 -12 80 -23 75 -22 104 -28 175 -39 25 -3
342 -7 705 -7 701 0 713 0 886 50 396 114 749 383 934 715 54 98 91 162 177
309 46 80 87 152 91 160 5 8 25 43 45 77 20 35 66 114 102 175 35 62 72 127
82 143 80 132 151 329 174 478 2 15 6 39 10 55 3 15 7 106 9 202 3 171 -9 303
-36 395 -6 22 -13 51 -15 65 -3 14 -7 32 -11 40 -3 8 -7 20 -8 25 -12 53 -84
195 -218 430 -88 154 -163 284 -168 289 -4 4 -14 -2 -22 -15z"/>
</g>
</svg>
